<?xml version="1.0" encoding="UTF-8" standalone="no"?>
<!DOCTYPE svg PUBLIC "-//W3C//DTD SVG 1.1//EN" "http://www.w3.org/Graphics/SVG/1.1/DTD/svg11.dtd">
<svg width="100%" height="100%" viewBox="0 0 79 79" version="1.1" xmlns="http://www.w3.org/2000/svg" xmlns:xlink="http://www.w3.org/1999/xlink" xml:space="preserve" xmlns:serif="http://www.serif.com/" style="fill-rule:evenodd;clip-rule:evenodd;stroke-linecap:round;stroke-linejoin:round;stroke-miterlimit:1.5;">
    <g transform="matrix(1,0,0,1,-1241.119542,-63.701542)">
        <g transform="matrix(1.895572,0,0,1.895572,-828.397006,-39.13277)">
            <path d="M1114.554,55.474L1116.365,60.094C1117.615,60.434 1118.818,60.932 1119.942,61.576L1124.49,59.589C1125.642,60.506 1126.686,61.55 1127.603,62.702L1125.616,67.249C1126.26,68.374 1126.758,69.576 1127.098,70.827L1131.718,72.637C1131.884,74.1 1131.884,75.577 1131.718,77.04L1127.098,78.851C1126.758,80.101 1126.26,81.303 1125.616,82.428L1127.603,86.975C1126.686,88.127 1125.642,89.172 1124.49,90.089L1119.942,88.102C1118.818,88.746 1117.615,89.244 1116.365,89.584L1114.554,94.204C1113.091,94.37 1111.614,94.37 1110.151,94.204L1108.341,89.584C1107.09,89.244 1105.888,88.746 1104.763,88.102L1100.216,90.089C1099.064,89.172 1098.02,88.127 1097.103,86.975L1099.09,82.428C1098.446,81.303 1097.948,80.101 1097.608,78.851L1092.988,77.04C1092.821,75.577 1092.821,74.1 1092.988,72.637L1097.608,70.827C1097.948,69.576 1098.446,68.374 1099.09,67.249L1097.103,62.702C1098.02,61.55 1099.064,60.506 1100.216,59.589L1104.763,61.576C1105.888,60.932 1107.09,60.434 1108.341,60.094L1110.151,55.474C1111.614,55.307 1113.091,55.307 1114.554,55.474ZM1112.353,68.636C1115.776,68.636 1118.555,71.416 1118.555,74.839C1118.555,78.262 1115.776,81.041 1112.353,81.041C1108.93,81.041 1106.15,78.262 1106.15,74.839C1106.15,71.416 1108.93,68.636 1112.353,68.636Z" style="fill:none;stroke:white;stroke-width:2.2px;"/>
        </g>
    </g>
</svg>
